<svg xmlns="http://www.w3.org/2000/svg" xmlns:xlink="http://www.w3.org/1999/xlink" viewBox="0 0 1028 612.16"><defs><style>.a{fill:url(#a);}.b,.d{fill:#fff;}.c,.d{opacity:0.5;}.e{fill:url(#b);}.f{fill:url(#c);}.g{fill:url(#d);}.h{fill:url(#e);}.i{fill:url(#f);}.j{fill:url(#g);}.k{fill:url(#h);}.l{fill:url(#i);}.m{fill:url(#j);}.n{fill:url(#k);}.o{fill:url(#l);}.p{fill:url(#m);}.q{fill:url(#n);}.r{fill:url(#o);}.s{fill:#f4cda6;}.t{fill:#7c5d42;}.u{fill:#999;}.v,.w{fill:none;stroke:#494949;stroke-miterlimit:10;stroke-width:2px;}.w{stroke-linecap:round;}.x{fill:#25a5a6;}.y{fill:#3d3d3d;}.z{fill:#262423;}.aa{fill:#84562d;}.ab{fill:#472e1a;}.ac{fill:#e2c796;}.ad{fill:#3a4b82;}.ae{fill:#cea16a;}.af{fill:#c4905c;}.ag{fill:#af7f4a;}</style><radialGradient id="a" cx="504.85" cy="134" r="499.25" gradientUnits="userSpaceOnUse"><stop offset="0" stop-color="#b3b3b3"/><stop offset="0.11" stop-color="#b1b1b1" stop-opacity="0.96"/><stop offset="0.28" stop-color="#ababab" stop-opacity="0.84"/><stop offset="0.48" stop-color="#a1a1a1" stop-opacity="0.65"/><stop offset="0.72" stop-color="#939393" stop-opacity="0.38"/><stop offset="0.97" stop-color="#828282" stop-opacity="0.04"/><stop offset="1" stop-color="gray" stop-opacity="0"/></radialGradient><linearGradient id="b" x1="301.64" y1="390.41" x2="376.76" y2="260.29" gradientUnits="userSpaceOnUse"><stop offset="0.15" stop-color="#e2c796" stop-opacity="0"/><stop offset="0.16" stop-color="#e0c494" stop-opacity="0.14"/><stop offset="0.19" stop-color="#debf8f" stop-opacity="0.37"/><stop offset="0.22" stop-color="#dcba8c" stop-opacity="0.56"/><stop offset="0.25" stop-color="#dab689" stop-opacity="0.72"/><stop offset="0.28" stop-color="#d9b487" stop-opacity="0.84"/><stop offset="0.31" stop-color="#d8b285" stop-opacity="0.93"/><stop offset="0.35" stop-color="#d7b084" stop-opacity="0.98"/><stop offset="0.38" stop-color="#d7b084"/></linearGradient><linearGradient id="c" x1="416.93" y1="384.46" x2="494.32" y2="250.41" xlink:href="#b"/><linearGradient id="d" x1="565.18" y1="397.3" x2="644.67" y2="259.61" xlink:href="#b"/><linearGradient id="e" x1="314.39" y1="380.22" x2="381.91" y2="263.26" gradientUnits="userSpaceOnUse"><stop offset="0.15" stop-color="#d7b084" stop-opacity="0"/><stop offset="0.16" stop-color="#d7ae82" stop-opacity="0.14"/><stop offset="0.19" stop-color="#d7ac7f" stop-opacity="0.37"/><stop offset="0.22" stop-color="#d7aa7c" stop-opacity="0.56"/><stop offset="0.25" stop-color="#d7a879" stop-opacity="0.72"/><stop offset="0.28" stop-color="#d7a777" stop-opacity="0.84"/><stop offset="0.31" stop-color="#d7a676" stop-opacity="0.93"/><stop offset="0.35" stop-color="#d7a575" stop-opacity="0.98"/><stop offset="0.38" stop-color="#d7a575"/></linearGradient><linearGradient id="f" x1="435.21" y1="370.85" x2="499.47" y2="259.54" xlink:href="#e"/><linearGradient id="g" x1="580.08" y1="384.35" x2="649.12" y2="264.76" xlink:href="#e"/><linearGradient id="h" x1="196" y1="256" x2="559.43" y2="256" gradientUnits="userSpaceOnUse"><stop offset="0.12" stop-color="#e2c796" stop-opacity="0"/><stop offset="0.17" stop-color="#e2c796" stop-opacity="0.28"/><stop offset="0.24" stop-color="#e2c796" stop-opacity="0.59"/><stop offset="0.3" stop-color="#e2c796" stop-opacity="0.81"/><stop offset="0.34" stop-color="#e2c796" stop-opacity="0.95"/><stop offset="0.36" stop-color="#e2c796"/></linearGradient><linearGradient id="i" x1="552.62" y1="253.1" x2="654" y2="253.1" xlink:href="#h"/><linearGradient id="j" x1="509.45" y1="391.7" x2="576.3" y2="275.93" gradientUnits="userSpaceOnUse"><stop offset="0.15" stop-color="#e2c796" stop-opacity="0"/><stop offset="0.17" stop-color="#e2c796" stop-opacity="0.18"/><stop offset="0.2" stop-color="#e2c796" stop-opacity="0.4"/><stop offset="0.23" stop-color="#e2c796" stop-opacity="0.58"/><stop offset="0.26" stop-color="#e2c796" stop-opacity="0.73"/><stop offset="0.29" stop-color="#e2c796" stop-opacity="0.85"/><stop offset="0.32" stop-color="#e2c796" stop-opacity="0.93"/><stop offset="0.35" stop-color="#e2c796" stop-opacity="0.98"/><stop offset="0.38" stop-color="#e2c796"/></linearGradient><linearGradient id="k" x1="383.89" y1="390.8" x2="452.72" y2="271.59" xlink:href="#j"/><linearGradient id="l" x1="651.22" y1="394.57" x2="722.96" y2="270.31" xlink:href="#j"/><linearGradient id="m" x1="376.39" y1="386.47" x2="438.86" y2="278.29" gradientUnits="userSpaceOnUse"><stop offset="0.15" stop-color="#d7b084" stop-opacity="0"/><stop offset="0.16" stop-color="#d7b084" stop-opacity="0.14"/><stop offset="0.19" stop-color="#d7b084" stop-opacity="0.37"/><stop offset="0.22" stop-color="#d7b084" stop-opacity="0.56"/><stop offset="0.25" stop-color="#d7b084" stop-opacity="0.72"/><stop offset="0.28" stop-color="#d7b084" stop-opacity="0.84"/><stop offset="0.31" stop-color="#d7b084" stop-opacity="0.93"/><stop offset="0.35" stop-color="#d7b084" stop-opacity="0.98"/><stop offset="0.38" stop-color="#d7b084"/></linearGradient><linearGradient id="n" x1="500.98" y1="386.81" x2="562.82" y2="279.69" xlink:href="#m"/><linearGradient id="o" x1="643.78" y1="390.27" x2="708.72" y2="277.79" xlink:href="#m"/></defs><title>Graphics-3</title><path class="a" d="M203,328l123-81a341.49,341.49,0,0,0,36,12c9.1,2.48,17.8,4.44,26,6a459.72,459.72,0,0,0,47-47,461.64,461.64,0,0,0,35-46l36,20a322.24,322.24,0,0,0,38-25,320.69,320.69,0,0,0,31-27,320.79,320.79,0,0,0,22,30,320.25,320.25,0,0,0,22,24l16-10a456.3,456.3,0,0,0,29,46,455.12,455.12,0,0,0,35,43l74-35a8,8,0,0,1,5-2c3,0,5.27,2.28,6,3,8.72,8.67,20,14.66,28,24s17.09,17,35,32a286.73,286.73,0,0,0,40,28l60-34,43-30,34,30q.49,178.5,1,357L-3,645,0,348l108-46c12.77,4.9,26.79,9.67,42,14A499.34,499.34,0,0,0,203,328Z" transform="translate(3 -33.84)"/><path class="b" d="M268,285q11.65-4.08,24-9,9.84-3.94,19-8-2.5,7.5-5,15l14-6a10.27,10.27,0,0,0,6,4,9.62,9.62,0,0,0,4,0,27,27,0,0,0,5,5,26,26,0,0,0,3,2l5-8v-4l8,1,11-5,5-6,18-2a207.46,207.46,0,0,1-34-8,206.56,206.56,0,0,1-25-10Z" transform="translate(3 -33.84)"/><path class="b" d="M436,216l7-4-9,26,45-20,6,1h0s4.37-4.11,9-8c5.18-4.35,6.52-4.93,7-7,.62-2.67-.78-5.28-2-7l15-3q-18.18-8.49-37-19-3.54-2-7-4Z" transform="translate(3 -33.84)"/><path class="b" d="M519,185l12,4,27-5a134.19,134.19,0,0,1,47,30,27.44,27.44,0,0,0,3-9,28,28,0,0,0-2-15l12,9c.33-1.67.67-3.33,1-5a265.25,265.25,0,0,1-23-25,265.44,265.44,0,0,1-21-30Z" transform="translate(3 -33.84)"/><path class="b" d="M621,193l-1,2a4.14,4.14,0,0,1,2,1c2.19,2.05,1.83,6.9-1,12l11-8,4,6,7,5,3,13,7,12a36.5,36.5,0,0,1,6-13c-4.3-6.25-8.66-12.91-13-20-4-6.5-7.64-12.85-11-19Z" transform="translate(3 -33.84)"/><path class="b" d="M728,259l-9,9,37-13-4,13c.67,2.33,1.33,4.67,2,7l21-19a3.65,3.65,0,0,0,0,3,3.59,3.59,0,0,0,3,2,34.72,34.72,0,0,0,7,10,12,12,0,0,1,3,4,11.84,11.84,0,0,1,1,5c.08,5.77,7.66,12.95,12,18a67.46,67.46,0,0,1,11,18c-.58-7.38-.94-15.05-1-23,0-1.68,0-3.35,0-5a9.68,9.68,0,0,1,4,2c1,.84,1,1.2,2,2,1.63,1.27,2.35.89,4,2s1.42,1.73,3,3a10.76,10.76,0,0,0,4,2,12.75,12.75,0,0,0,6,6c-.33-1.67-.67-3.33-1-5l3-5a30.7,30.7,0,0,1,12,4l-5-8q-19.07-18.35-40-37-11.57-10.29-23-20Z" transform="translate(3 -33.84)"/><g class="c"><path class="b" d="M216,107c-3.69-10-12.54-16.74-22-17-12.3-.34-24.09,10.36-25,25-14.48-2-25.11,7.94-25,16,.1,7.16,8.72,15.6,21,16H302c16.84,4.56,31.7-6.25,33-18,1-8.7-5.46-18.46-16-23,10.18-8.31,14.51-20.83,11-30-4.8-12.57-24.9-20.4-43-10a29.72,29.72,0,0,0-18-30c-10.57-4.32-23.85-2.25-32,7-8.59,9.75-9.18,24.85-1,36-1.2-.29-9.51-2.15-16,3C213.34,87.28,211.31,97.79,216,107Z" transform="translate(3 -33.84)"/><path class="d" d="M684,172H820c6.37,1.59,12.76-1.6,15-7,2.64-6.41-1.63-13.31-7-16-6.75-3.38-13.57.73-14,1a18.36,18.36,0,0,0,7-12c.7-5.83-1.55-12.87-7-16-6.78-3.9-17.4-1.11-23,8a17.22,17.22,0,0,0-10-6c-7.08-1.21-14.68,2.73-19,10a26.08,26.08,0,0,0-1-17c-4.41-10.11-16.44-18-28-15-12.41,3.25-20.84,18.2-16,33,.11-8-3.82-15.22-10-18-10.38-4.66-24.22,4.43-25,14-.65,8,8.06,14.34,9,15a22.94,22.94,0,0,0,11,4c-1.23-.45-12-4.17-20,2-1.57,1.22-6.75,5.22-6,11C676.52,167,679.64,170.41,684,172Z" transform="translate(3 -33.84)"/></g><path class="e" d="M378,261l-18-6L294,386h30c8.72-16.81,15.78-31.15,21-42,16-33.15,21.15-47,23-52C372.69,279.24,375.93,268.46,378,261Z" transform="translate(3 -33.84)"/><path class="f" d="M404,377l31,2c12.55-18.71,25.38-39.37,38-62,11.83-21.22,22.09-41.66,31-61l-26-3c-10.42,20.2-22,41.28-35,63S416.89,358.15,404,377Z" transform="translate(3 -33.84)"/><path class="g" d="M654,265,586,391l-30,1q24.57-46.29,50-93,11.49-21.09,23-42Z" transform="translate(3 -33.84)"/><path class="h" d="M378,261c-5,15.85-10.93,32.59-18,50a662.47,662.47,0,0,1-35,73l-11-4q22.39-43.85,44-91,6.66-14.58,13-29Z" transform="translate(3 -33.84)"/><path class="i" d="M432,369q21.56-39,43-78,8.5-15.5,17-31l10,1c-6.38,14.2-12.3,26-17,35-11.79,22.52-22.23,39.22-29,50s-12.62,19.57-17,26Z" transform="translate(3 -33.84)"/><path class="j" d="M640,263,576,382l15,1,62-116Z" transform="translate(3 -33.84)"/><path class="k" d="M559.43,242.63c-7.37,8.06-8.92,9.63-10.43,11.37a63.18,63.18,0,0,0-7.22,10.29l-2.35-.14c-6.38-.4-12.37-.8-18.43-1.15-42.56-2.49-73.69-1.9-122-1-38.7.72-70.47,2.48-134,6-27.71,1.53-50.77,3-67,4q-1-11-2-22l179-8c16.06-.89,39.95-1.91,69-2,35.13-.11,56.34,1.22,82,2q10.92.33,24.23.53C553.21,242.57,556.27,242.61,559.43,242.63Z" transform="translate(3 -33.84)"/><path class="l" d="M654,265c-16.29.78-40.53,1.56-70,1-3.29-.06-6.43-.14-9.44-.22-8.13-.23-15.33-.54-21.94-.89a169.94,169.94,0,0,1,14.12-22.23q12.64,0,26.94-.17c14.86-.23,31-.7,48.32-1.49l10-1Q653,252.5,654,265Z" transform="translate(3 -33.84)"/><path class="m" d="M501,244q-2.5,9.5-5,19l59,155h33q-18.53-49.63-38-100-14.44-37.32-29-74Z" transform="translate(3 -33.84)"/><path class="n" d="M373,243l5-3h20q11.33,30.88,23,62,21.83,58.2,44,115l-34,1q-16.1-43.53-32-88-12.22-34.17-24-68Q374,252.51,373,243Z" transform="translate(3 -33.84)"/><path class="o" d="M642,243l2-4,23-1q13.11,35.46,26,71,20.26,55.89,40,112H697q-14.44-41-29-82-13-36.53-26-73Z" transform="translate(3 -33.84)"/><path class="p" d="M376,242l-9,21h8l56,155h11q-14.76-45.48-33-94Q392.81,281.21,376,242Z" transform="translate(3 -33.84)"/><path class="q" d="M488,262l13-18,67,174H555L495,262Z" transform="translate(3 -33.84)"/><path class="r" d="M631,266l14-25,66,180H697q-27.5-77.5-55-155Z" transform="translate(3 -33.84)"/><path class="s" d="M501,79c-1.88,1-6.1,3.3-8,8-2.91,7.18,1.55,15.21,2,16a40.23,40.23,0,0,0,4,6c1.38,1.57,2.41,2.35,3,4a8.07,8.07,0,0,1,0,5,5.44,5.44,0,0,0-3,3c-1,3,1.63,5.63,2,6s3,3,6,2a5.44,5.44,0,0,0,3-3,25.8,25.8,0,0,0,2,7c1,2.3,2.22,5,5,7,1.09.8,3.44,2.52,6,2,.34-.07.8-.29,4-3,1-.84,1.78-1.53,2.31-2a4.56,4.56,0,0,1,1.69,0c3.59.69,6.18,6,7,13l11-12a10.61,10.61,0,0,1-9-9,19.83,19.83,0,0,0,5-4,20.7,20.7,0,0,0,5-11L539,85C536.63,83.56,515.58,71.1,501,79Z" transform="translate(3 -33.84)"/><path d="M492.5,82.5a11.66,11.66,0,0,0,6-1,6.6,6.6,0,0,1,3-1c.48,0,2.27-.06,3,1,.92,1.33-.79,3,0,5a4.11,4.11,0,0,0,2,2c-.12.45-.92,3.61,1,6,2.23,2.77,7,3.17,9,1a4.46,4.46,0,0,0,1-3,6.85,6.85,0,0,1,2,4c.23,2.36-1.24,3.26-1,6,.06.74.27,3.12,2,4a3.83,3.83,0,0,0,3,0c.83,2.64,1.76,3.37,2.5,3.5s2-.25,3.45.48l0,0a7.37,7.37,0,0,0-1-9,5.52,5.52,0,0,1,0-4c1.14-2.62,4.58-3.64,7-3,3.82,1,4.94,6.24,5,9A12.35,12.35,0,0,1,538,111a2.19,2.19,0,0,0,1,2,2.31,2.31,0,0,0,3-1,3.77,3.77,0,0,0,0,3c.92,1.69,3.9,2.44,7,1a4,4,0,0,0,3,0c2.43-1.1,3.52-5.57,2-11a12.06,12.06,0,0,0,3-8,12.66,12.66,0,0,0-8-11,11.54,11.54,0,0,0,3-5c1.64-5.92-2.08-13.06-8-16-7.2-3.57-14.46.67-15,1-.37-4.44-2.14-6.29-3-7-4.57-3.8-14.73-1.7-24,7a4.11,4.11,0,0,0-5-1,4.18,4.18,0,0,0-1,6,6.33,6.33,0,0,0-7,5A6.26,6.26,0,0,0,492.5,82.5Z" transform="translate(3 -33.84)"/><path class="s" d="M488,223a13.87,13.87,0,0,0-6,4c-1.26,1.48-1.54,2.55-3,4a12.49,12.49,0,0,1-5,3,20.37,20.37,0,0,0-6.82.65l-4.91-14A6.85,6.85,0,0,0,466,216a6.6,6.6,0,0,0,0-3,11.38,11.38,0,0,1-8,2c-.78-.13-4.41-.73-5-3a2.93,2.93,0,0,1,1-3c.77-.51,1.52-.18,3,0a18.51,18.51,0,0,0,8-1c1.55-.54,1.82-.91,3-1a7.38,7.38,0,0,1,4,1,21.62,21.62,0,0,1,7,6l7-1Q487,218,488,223Z" transform="translate(3 -33.84)"/><path class="s" d="M491,169a4.33,4.33,0,0,1-4,0,4.11,4.11,0,0,1-2-4l3-1Z" transform="translate(3 -33.84)"/><path class="t" d="M508,198l7-4c-15.09-21.9-20.33-31-22-35a45.23,45.23,0,0,0-3-6,46.52,46.52,0,0,0-6-8l-7,4c1.73,2.93,4.47,7.49,8,13,5,7.85,7.6,11.26,12,18C499.69,184.12,503.56,190.24,508,198Z" transform="translate(3 -33.84)"/><path class="u" d="M473,153c2-1.33,3.74-2.32,5-3,5.59-3,8-3.19,10-6,1.46-2.05.59-2.55,2-4,3.48-3.59,10.3-2.16,11-2a15.42,15.42,0,0,1,3,1,20.2,20.2,0,0,0-6-6,19.31,19.31,0,0,0-13-3c-.85.13-2.57.47-9,4-4.29,2.35-7.7,4.49-10,6,.33,1,.67,2,1,3l-5-1a.71.71,0,0,0-1,1l7,12a1.62,1.62,0,0,0,1,0,1.69,1.69,0,0,0,1-1c.33-1.33.67-2.67,1-4Z" transform="translate(3 -33.84)"/><path class="s" d="M498,170a9,9,0,0,0,2,4,9.26,9.26,0,0,0,6,3,6.1,6.1,0,0,0-2,4c-.11,3,2.69,6.14,7,7a17,17,0,0,0,3-5,17.35,17.35,0,0,0,1-4l-9-10a8.64,8.64,0,0,0-4-4c-2.57-1.18-5.71-.89-6,0s1.74,1.66,2,4A4.66,4.66,0,0,1,498,170Z" transform="translate(3 -33.84)"/><path class="s" d="M487,177a3.5,3.5,0,0,1,1-2c.74-.71,1.62-.84,3-1,3.8-.43,5.73-.63,7,0,.61.3,1.89.94,2,2s-1.07,2.36-3,3c1.45-1.76,3.75-2,5-1a3.54,3.54,0,0,1,1,3l-2,2h0a16.66,16.66,0,0,1,3-1c1.08-.21,1.62-.31,2,0,.83.69.08,2.78,0,3a7.59,7.59,0,0,1-4,4l5-4a2.48,2.48,0,0,1,1,1c1.1,2.07-1.41,5.25-2,6a11.88,11.88,0,0,1-2,2,5.73,5.73,0,0,1-3,0,5.79,5.79,0,0,1-3-2,3.66,3.66,0,0,1-1,0,4.62,4.62,0,0,1-3-2,12.33,12.33,0,0,1-1-3h0a8.39,8.39,0,0,1-2-1c-.48-.47-.81-1.51,0-4a5.57,5.57,0,0,1-2-1C488.7,180.76,486.7,179.18,487,177Z" transform="translate(3 -33.84)"/><path class="v" d="M454.5,207.5q.25,16.25.5,32.5" transform="translate(3 -33.84)"/><path class="w" d="M452.5,207.5h4" transform="translate(3 -33.84)"/><path class="s" d="M467.18,234.65c-.44.12-.84.24-1.18.35a20.54,20.54,0,0,0-7,4,2.5,2.5,0,0,1-2-4l-2,2a4.44,4.44,0,0,1-4-1,3.8,3.8,0,0,1-1-2c-2.29.86-4.38.24-5-1a2.55,2.55,0,0,1,0-2,19.7,19.7,0,0,1,4-3,19.93,19.93,0,0,1,5-2l-5-1v-3a6.72,6.72,0,0,0,1-4,6.58,6.58,0,0,0-1-3,5.2,5.2,0,0,1,3-1,5.36,5.36,0,0,1,5,4,4.7,4.7,0,0,1,0,2,6,6,0,0,0,4,1,4.43,4.43,0,0,0,1.27-.36Z" transform="translate(3 -33.84)"/><path class="x" d="M485,212l3,12a2.81,2.81,0,0,0,2,1c.83,0,1.25-.61,2-1a5,5,0,0,1,4,0v-4a39.78,39.78,0,0,0,10-1c6.09-1.41,10.21-3.95,15-7,6.64-4.23,13.66-8.88,21-14a65.07,65.07,0,0,0,11-26,10.61,10.61,0,0,0,3,2c6.69,2.95,14.15-2.38,15-3a28.7,28.7,0,0,0-5-16c-1.56-2.24-4.82-6.91-11-9a19.61,19.61,0,0,0-7-1l-12,12a33.65,33.65,0,0,1-4,28,34.52,34.52,0,0,1-6-1,35.38,35.38,0,0,1-11-5,18.72,18.72,0,0,1-4,9c.33,1,.67,2,1,3l5,1a26.68,26.68,0,0,0,11,3,60.65,60.65,0,0,1-33,17l-1-1Z" transform="translate(3 -33.84)"/><path class="x" d="M538,156l-2-6v-2l1-2,1,3c2-2.15,4-4.48,6-7,2.21-2.75,4.2-5.43,6-8a6.53,6.53,0,0,0,2,2,6.76,6.76,0,0,0,4,1,76.69,76.69,0,0,0-6,5A78.64,78.64,0,0,0,538,156Z" transform="translate(3 -33.84)"/><path class="y" d="M540,153l8-8a18.83,18.83,0,0,1,6,1c12.22,4.19,15.61,20,16,22a14.07,14.07,0,0,1-17,4q-2.5,8-5,16l6,13-2,1,12,21a23,23,0,0,1,4,3c.36.33.69.67,1,1l28-12c-1.29-3.84-3.33-9.78-6-17-5.46-14.78-10-25.26-16-36-4.38-7.81-7.62-12.31-13-16a35.55,35.55,0,0,0-11-5,17.76,17.76,0,0,0-2,1A21.89,21.89,0,0,0,540,153Z" transform="translate(3 -33.84)"/><path class="z" d="M572,350c0,.29.24,4.93,4,7,2.08,1.14,5.27,1.52,7,0,.45-.39,1-1.6,2-4,.94-2.18,1-2.64,1-3a5.43,5.43,0,0,0-2-4Z" transform="translate(3 -33.84)"/><path class="aa" d="M572,353l-5,9,7,18a27.3,27.3,0,0,0,6-6c2.23-3.08,2.45-4.84,5-7,1.85-1.57,2.65-1.42,5-3a22.76,22.76,0,0,0,6-6l-8-9-3-2a6,6,0,0,1,0,3c-.66,2.47-3,4.36-6,5l-6-3Z" transform="translate(3 -33.84)"/><path class="ab" d="M574,380a41.56,41.56,0,0,0,5-6c2.16-3.15,2.76-5,5-7a15.36,15.36,0,0,1,5-3l7-6c2.2-.48,2.85-.3,3,0s-.16.53,0,1,.69.57,1,1,.39.88,0,2l-8,8a5.23,5.23,0,0,0-5,2,45.41,45.41,0,0,0-3,4,42.76,42.76,0,0,1-5,5,44.26,44.26,0,0,1-3.83,2.89c-.06.07-.11.11-.17.11C574.66,384,574.33,382.67,574,380Z" transform="translate(3 -33.84)"/><path class="ac" d="M566.74,242.66a169.94,169.94,0,0,0-14.12,22.23c-3.78-.19-7.37-.39-10.84-.6A63.18,63.18,0,0,1,549,254c1.51-1.74,3.06-3.31,10.43-11.37Q563,242.66,566.74,242.66Z" transform="translate(3 -33.84)"/><path class="ad" d="M587,347l0,0-1,1c-7.7.47-10.72,2.3-12,4a8.61,8.61,0,0,1-4,3c-.33.1-1.6.5-2,0-.23-.29-.07-.76,0-1a8.1,8.1,0,0,0,0-4c-.68-1.15-1.73-2.89-3-5-9.5-15.77-10.11-16.13-12-20-2.34-4.78-5.2-10.77-6-19a46.38,46.38,0,0,1,1-15,29.15,29.15,0,0,0-4,12l-9-23a86.44,86.44,0,0,1,5.22-12.83q.78-1.51,1.56-2.88c3.47.21,7.06.41,10.84.6a169.94,169.94,0,0,1,14.12-22.23q-3.74,0-7.31,0,.27-.31.57-.63l4.44-4.87L570,231l22-7,1.68,18.49c.11,1.17.21,2.34.32,3.51a70.87,70.87,0,0,0-19.44,19.78A65.58,65.58,0,0,0,564,298a53,53,0,0,0,3,21c2,5.36,2.91,5,9,16a17,17,0,0,0,4,5,15.65,15.65,0,0,0,3,2C585.37,344.31,587.38,346.51,587,347Z" transform="translate(3 -33.84)"/><path class="ae" d="M567,228l15-7,15-7,6,12-1,1c1.25,1.58,2.26,2.95,3,4,3.73,5.26,3.3,5.83,5,8a5,5,0,0,1,1,2,4.59,4.59,0,0,1,0,2,4.88,4.88,0,0,1-1,2c-1.67,2.17-5.56,3.82-6,4a26.68,26.68,0,0,1-11-3,60.93,60.93,0,0,1-10-18q-4.29,2-9,4-2.54,1-5,2Z" transform="translate(3 -33.84)"/><path class="af" d="M589,231c1.41,2.68,3.07,5.7,5,9,1.4,2.39,2.72,4.53,5,5a6.07,6.07,0,0,0,2,0,14.89,14.89,0,0,0,6-2q-3.4-6-7-12-1.5-2.52-3-5l-8,3Z" transform="translate(3 -33.84)"/><path class="ag" d="M597,228l3-1c1.65,1.94,3,3.65,4,5a45.22,45.22,0,0,1,4,6c.44.82.78,1.52,1,2-.28.46-2,3.22-4,3-.82-.09-1.31-.64-3-3-4.35-6.07-4.82-7.6-5-9A11.34,11.34,0,0,1,597,228Z" transform="translate(3 -33.84)"/></svg>