<svg xmlns="http://www.w3.org/2000/svg" xmlns:xlink="http://www.w3.org/1999/xlink" viewBox="0 0 582.8 149.6"><defs><style>.cls-1{fill:url(#linear-gradient);}.cls-2{fill:url(#linear-gradient-2);}.cls-3{fill:url(#linear-gradient-3);}.cls-4{fill:url(#linear-gradient-4);}.cls-5{fill:url(#linear-gradient-5);}.cls-6{fill:url(#linear-gradient-6);}.cls-7{fill:url(#linear-gradient-7);}.cls-8{fill:url(#linear-gradient-8);}.cls-9{fill:url(#linear-gradient-9);}.cls-10{fill:url(#linear-gradient-10);}.cls-11{fill:url(#linear-gradient-11);}.cls-12{fill:url(#linear-gradient-12);}.cls-13{fill:url(#linear-gradient-13);}.cls-14{fill:none;}</style><linearGradient id="linear-gradient" x1="-15.29" y1="77.37" x2="313.65" y2="67.98" gradientUnits="userSpaceOnUse"><stop offset="0" stop-color="#008e9d"/><stop offset="1" stop-color="#2ea399"/></linearGradient><linearGradient id="linear-gradient-2" x1="-14.59" y1="101.74" x2="314.35" y2="92.34" xlink:href="#linear-gradient"/><linearGradient id="linear-gradient-3" x1="-15.07" y1="84.74" x2="313.87" y2="75.34" xlink:href="#linear-gradient"/><linearGradient id="linear-gradient-4" x1="-42.08" y1="119.33" x2="742.08" y2="56.91" gradientUnits="userSpaceOnUse"><stop offset="0" stop-color="#008e9d"/><stop offset="1" stop-color="#335399"/></linearGradient><linearGradient id="linear-gradient-5" x1="-41.29" y1="129.19" x2="742.86" y2="66.76" xlink:href="#linear-gradient-4"/><linearGradient id="linear-gradient-6" x1="-41.83" y1="122.39" x2="742.32" y2="59.97" xlink:href="#linear-gradient-4"/><linearGradient id="linear-gradient-7" x1="-40.86" y1="134.69" x2="743.3" y2="72.27" xlink:href="#linear-gradient-4"/><linearGradient id="linear-gradient-8" x1="-41.33" y1="128.77" x2="742.83" y2="66.35" xlink:href="#linear-gradient-4"/><linearGradient id="linear-gradient-9" x1="-58.48" y1="127.63" x2="644.52" y2="74.63" gradientUnits="userSpaceOnUse"><stop offset="0" stop-color="#335399"/><stop offset="0.13" stop-color="#395499"/><stop offset="0.29" stop-color="#49579a"/><stop offset="0.48" stop-color="#655c9b"/><stop offset="0.64" stop-color="#82629c"/><stop offset="0.74" stop-color="#9a679d"/><stop offset="0.95" stop-color="#d8739f"/><stop offset="1" stop-color="#e876a0"/></linearGradient><linearGradient id="linear-gradient-10" x1="-57.55" y1="140.05" x2="645.45" y2="87.05" xlink:href="#linear-gradient-9"/><linearGradient id="linear-gradient-11" x1="-58.2" y1="131.35" x2="644.8" y2="78.35" xlink:href="#linear-gradient-9"/><linearGradient id="linear-gradient-12" x1="-56.88" y1="148.9" x2="646.12" y2="95.9" xlink:href="#linear-gradient-9"/><linearGradient id="linear-gradient-13" x1="-57.28" y1="143.6" x2="645.72" y2="90.6" xlink:href="#linear-gradient-9"/></defs><title>Layer 2</title><g id="Layer_2" data-name="Layer 2"><g id="Layer_2-2" data-name="Layer 2"><path class="cls-1" d="M139.8,37A71.93,71.93,0,0,0,112.9,9.9,74.66,74.66,0,0,0,74.8,0,74.66,74.66,0,0,0,36.7,9.9,71.93,71.93,0,0,0,9.8,37,75.08,75.08,0,0,0,0,74.8a76.56,76.56,0,0,0,4.36,26A73.46,73.46,0,0,0,9.8,112.6a71.69,71.69,0,0,0,18.92,21.77,73.85,73.85,0,0,0,8,5.33,74.66,74.66,0,0,0,38.1,9.9,74.66,74.66,0,0,0,38.1-9.9A71.61,71.61,0,0,0,136,118.56c1.34-1.91,2.59-3.9,3.77-6a75,75,0,0,0,9.8-37.8q0-2.79-.18-5.52A74.31,74.31,0,0,0,139.8,37Zm-23.5,63.4-.19.33A44.68,44.68,0,0,1,99,117.8,48.36,48.36,0,0,1,74.8,124a47.83,47.83,0,0,1-24.1-6.2c-.93-.53-1.83-1.09-2.71-1.67A44.94,44.94,0,0,1,33.5,100.4a47.33,47.33,0,0,1-4.63-11.63,56.59,56.59,0,0,1-1.67-14,51.32,51.32,0,0,1,6.3-25.6A45,45,0,0,1,50.7,31.8a47.93,47.93,0,0,1,24.1-6.2A48.46,48.46,0,0,1,99,31.8a44.86,44.86,0,0,1,17.3,17.4A48.35,48.35,0,0,1,122,66.43a58.3,58.3,0,0,1,.58,8.37A51.29,51.29,0,0,1,116.3,100.4Z"/><path class="cls-2" d="M247.4,52q-12.19-10.8-35.6-10.8a57.34,57.34,0,0,0-24.4,5.2,49.34,49.34,0,0,0-18.6,14.8l16.8,13.2a32.69,32.69,0,0,1,11.1-8.7,31.1,31.1,0,0,1,13.9-3.3q10.6,0,16.9,5.2a16.53,16.53,0,0,1,5.66,8.61,18.69,18.69,0,0,1,.64,5v4.4a57.92,57.92,0,0,0-12.21-3.42A86.42,86.42,0,0,0,206.8,81a51.64,51.64,0,0,0-17.89,3c-1,.36-2,.75-2.91,1.18a34.78,34.78,0,0,0-14.8,12,30.84,30.84,0,0,0-5.4,18,37,37,0,0,0,1.74,11.59,30.65,30.65,0,0,0,8.66,13.31q10.4,9.5,26.6,9.5a37.82,37.82,0,0,0,17.3-3.8,34.7,34.7,0,0,0,12.1-9.8h1.6v10.4h25.8V83.6a50,50,0,0,0-3.43-19.26A33.61,33.61,0,0,0,247.4,52Zm-20.3,69.9q-6.71,7.3-18.1,7.3-8.2,0-12.6-3.9a12.73,12.73,0,0,1-4.38-9.4c0-.23,0-.46,0-.7q0-15.2,20.4-15.2a49.66,49.66,0,0,1,12.09,1.47,50.53,50.53,0,0,1,9.31,3.33A24.44,24.44,0,0,1,227.1,121.9Z"/><path class="cls-3" d="M322.4,69.3a27.57,27.57,0,0,1,6.23-2.66V42.93a33.09,33.09,0,0,0-6.43,2.77A33.49,33.49,0,0,0,310,56.8h-1.6L310,42.4V3.2H283.8V146.4h24.6V134.2H310a31,31,0,0,0,12.1,11,34.45,34.45,0,0,0,6.53,2.72V124.34a26.58,26.58,0,0,1-6.23-2.74A27.74,27.74,0,0,1,312.2,111a31.45,31.45,0,0,1-3.8-15.6,31.51,31.51,0,0,1,3.8-15.6A27.12,27.12,0,0,1,322.4,69.3Z"/><path class="cls-4" d="M122,66.43a58.3,58.3,0,0,1,.58,8.37,51.29,51.29,0,0,1-6.3,25.6l-.19.33A44.68,44.68,0,0,1,99,117.8,48.36,48.36,0,0,1,74.8,124a47.83,47.83,0,0,1-24.1-6.2c-.93-.53-1.83-1.09-2.71-1.67L28.72,134.37a73.85,73.85,0,0,0,8,5.33,74.66,74.66,0,0,0,38.1,9.9,74.66,74.66,0,0,0,38.1-9.9A71.61,71.61,0,0,0,136,118.56c1.34-1.91,2.59-3.9,3.77-6a75,75,0,0,0,9.8-37.8q0-2.79-.18-5.52Z"/><path class="cls-5" d="M233.16,76.21a18.69,18.69,0,0,1,.64,5v4.4a57.92,57.92,0,0,0-12.21-3.42l-16,8.23L188.91,84c-1,.36-2,.75-2.91,1.18a34.78,34.78,0,0,0-14.8,12,30.84,30.84,0,0,0-5.4,18,37,37,0,0,0,1.74,11.59,30.65,30.65,0,0,0,8.66,13.31q10.4,9.5,26.6,9.5a37.82,37.82,0,0,0,17.3-3.8,34.7,34.7,0,0,0,12.1-9.8h1.6v10.4h25.8V83.6a50,50,0,0,0-3.43-19.26ZM227.1,121.9q-6.71,7.3-18.1,7.3-8.2,0-12.6-3.9a12.73,12.73,0,0,1-4.38-9.4c0-.23,0-.46,0-.7q0-15.2,20.4-15.2a49.66,49.66,0,0,1,12.09,1.47,50.53,50.53,0,0,1,9.31,3.33A24.44,24.44,0,0,1,227.1,121.9Z"/><path class="cls-6" d="M383.4,67.4a47.78,47.78,0,0,0-17.7-19.3,47.21,47.21,0,0,0-25.1-6.9,36.89,36.89,0,0,0-18.4,4.5A33.49,33.49,0,0,0,310,56.8h-1.6L310,42.4V36.57L283.8,50.08V146.4h24.6V134.2H310a31,31,0,0,0,12.1,11,38.18,38.18,0,0,0,18.5,4.4,47.21,47.21,0,0,0,25.1-6.9,47.89,47.89,0,0,0,17.7-19.2q6.41-12.3,6.4-28.1a68.73,68.73,0,0,0-.72-10.08A56.61,56.61,0,0,0,383.4,67.4ZM360,111a27.74,27.74,0,0,1-10.2,10.6,26.52,26.52,0,0,1-13.8,3.8,26.16,26.16,0,0,1-13.6-3.8A27.74,27.74,0,0,1,312.2,111a31.45,31.45,0,0,1-3.8-15.6,31.51,31.51,0,0,1,3.8-15.6,27.12,27.12,0,0,1,10.2-10.5A26.82,26.82,0,0,1,336,65.6a27.21,27.21,0,0,1,24,14.2,31.51,31.51,0,0,1,3.8,15.6A31.45,31.45,0,0,1,360,111Z"/><path class="cls-7" d="M485.8,52q-12.19-10.8-35.6-10.8a57.3,57.3,0,0,0-24.4,5.2,49.34,49.34,0,0,0-18.6,14.8L424,74.4a32.69,32.69,0,0,1,11.1-8.7A31.07,31.07,0,0,1,449,62.4q10.59,0,16.9,5.2A16.51,16.51,0,0,1,472,78.12a20.57,20.57,0,0,1,.23,3.08v4.4Q461,81,445.2,81a50.43,50.43,0,0,0-20.8,4.2,34.78,34.78,0,0,0-14.8,12,30.84,30.84,0,0,0-5.4,18q0,15.4,10.4,24.9t26.6,9.5a37.82,37.82,0,0,0,17.3-3.8,34.7,34.7,0,0,0,12.1-9.8h1.6v10.4H498V83.6a53,53,0,0,0-2.16-15.71A34.2,34.2,0,0,0,485.8,52Zm-20.3,69.9q-6.71,7.3-18.1,7.3-8.2,0-12.6-3.9a12.87,12.87,0,0,1-4.4-10.1q0-15.2,20.4-15.2a49.69,49.69,0,0,1,21.4,4.8A24.49,24.49,0,0,1,465.5,121.9Z"/><path class="cls-8" d="M576.3,122.4a17,17,0,0,1-6.3,1q-6.81,0-9.6-3.2Q557,116.81,557,109V66.8h25V44.4H557V15.6H530.8V44.4H513V66.8h17.8v47q0,16.61,9.4,25.6a27.52,27.52,0,0,0,10.4,6.3,41.16,41.16,0,0,0,14,2.3,49,49,0,0,0,18.2-3.4V119A48.33,48.33,0,0,1,576.3,122.4Z"/><path class="cls-9" d="M99,117.8A48.36,48.36,0,0,1,74.8,124a47.83,47.83,0,0,1-24.1-6.2,44.88,44.88,0,0,1-17.2-17.4,47.33,47.33,0,0,1-4.63-11.63l-24.51,12A73.46,73.46,0,0,0,9.8,112.6a71.86,71.86,0,0,0,26.9,27.1,74.66,74.66,0,0,0,38.1,9.9,74.66,74.66,0,0,0,38.1-9.9A71.61,71.61,0,0,0,136,118.56l-19.92-17.83A44.68,44.68,0,0,1,99,117.8Z"/><path class="cls-10" d="M233.8,104.8a24.44,24.44,0,0,1-6.7,17.1q-6.71,7.3-18.1,7.3-8.2,0-12.6-3.9a12.73,12.73,0,0,1-4.38-9.4l-24.48,10.89a30.65,30.65,0,0,0,8.66,13.31q10.4,9.5,26.6,9.5a37.82,37.82,0,0,0,17.3-3.8,34.7,34.7,0,0,0,12.1-9.8h1.6v10.4h25.8V85.87l-35.11,15.6A50.53,50.53,0,0,1,233.8,104.8Z"/><path class="cls-11" d="M332.63,53.41,283.8,75.11V146.4h24.6V134.2H310a31,31,0,0,0,12.1,11,38.18,38.18,0,0,0,18.5,4.4,47.21,47.21,0,0,0,25.1-6.9,47.89,47.89,0,0,0,17.7-19.2q6.41-12.3,6.4-28.1a68.73,68.73,0,0,0-.72-10.08ZM360,111a27.74,27.74,0,0,1-10.2,10.6,26.52,26.52,0,0,1-13.8,3.8,26.16,26.16,0,0,1-13.6-3.8A27.74,27.74,0,0,1,312.2,111a31.45,31.45,0,0,1-3.8-15.6,31.51,31.51,0,0,1,3.8-15.6,27.12,27.12,0,0,1,10.2-10.5A26.82,26.82,0,0,1,336,65.6a27.21,27.21,0,0,1,24,14.2,31.51,31.51,0,0,1,3.8,15.6A31.45,31.45,0,0,1,360,111Z"/><path class="cls-12" d="M472,78.12a20.57,20.57,0,0,1,.23,3.08v4.4Q461,81,445.2,81a50.43,50.43,0,0,0-20.8,4.2,34.78,34.78,0,0,0-14.8,12,30.84,30.84,0,0,0-5.4,18q0,15.4,10.4,24.9t26.6,9.5a37.82,37.82,0,0,0,17.3-3.8,34.7,34.7,0,0,0,12.1-9.8h1.6v10.4H498V83.6a53,53,0,0,0-2.16-15.71ZM465.5,121.9q-6.71,7.3-18.1,7.3-8.2,0-12.6-3.9a12.87,12.87,0,0,1-4.4-10.1q0-15.2,20.4-15.2a49.69,49.69,0,0,1,21.4,4.8A24.49,24.49,0,0,1,465.5,121.9Z"/><path class="cls-13" d="M576.3,122.4a17,17,0,0,1-6.3,1q-6.81,0-9.6-3.2Q557,116.81,557,109V66.8h25V44.4h-5.82L513,62.21V66.8h17.8v47q0,16.61,9.4,25.6a27.52,27.52,0,0,0,10.4,6.3,41.16,41.16,0,0,0,14,2.3,49,49,0,0,0,18.2-3.4V119A48.33,48.33,0,0,1,576.3,122.4Z"/><path class="cls-14" d="M149.42,69.28A74.31,74.31,0,0,0,139.8,37,71.93,71.93,0,0,0,112.9,9.9,74.66,74.66,0,0,0,74.8,0,74.66,74.66,0,0,0,36.7,9.9,71.93,71.93,0,0,0,9.8,37,75.08,75.08,0,0,0,0,74.8a76.56,76.56,0,0,0,4.36,26A73.46,73.46,0,0,0,9.8,112.6a71.69,71.69,0,0,0,18.92,21.77,73.85,73.85,0,0,0,8,5.33,74.66,74.66,0,0,0,38.1,9.9,74.66,74.66,0,0,0,38.1-9.9A71.61,71.61,0,0,0,136,118.56c1.34-1.91,2.59-3.9,3.77-6a75,75,0,0,0,9.8-37.8Q149.6,72,149.42,69.28ZM116.3,100.4l-.19.33A44.68,44.68,0,0,1,99,117.8,48.36,48.36,0,0,1,74.8,124a47.83,47.83,0,0,1-24.1-6.2c-.93-.53-1.83-1.09-2.71-1.67A44.94,44.94,0,0,1,33.5,100.4a47.33,47.33,0,0,1-4.63-11.63,56.59,56.59,0,0,1-1.67-14,51.32,51.32,0,0,1,6.3-25.6A45,45,0,0,1,50.7,31.8a47.93,47.93,0,0,1,24.1-6.2A48.46,48.46,0,0,1,99,31.8a44.86,44.86,0,0,1,17.3,17.4A48.35,48.35,0,0,1,122,66.43a58.3,58.3,0,0,1,.58,8.37A51.29,51.29,0,0,1,116.3,100.4ZM256.17,64.34A33.61,33.61,0,0,0,247.4,52q-12.19-10.8-35.6-10.8a57.34,57.34,0,0,0-24.4,5.2,49.34,49.34,0,0,0-18.6,14.8l16.8,13.2a32.69,32.69,0,0,1,11.1-8.7,31.1,31.1,0,0,1,13.9-3.3q10.6,0,16.9,5.2a16.53,16.53,0,0,1,5.66,8.61,18.69,18.69,0,0,1,.64,5v4.4a57.92,57.92,0,0,0-12.21-3.42A86.42,86.42,0,0,0,206.8,81a51.64,51.64,0,0,0-17.89,3c-1,.36-2,.75-2.91,1.18a34.78,34.78,0,0,0-14.8,12,30.84,30.84,0,0,0-5.4,18,37,37,0,0,0,1.74,11.59,30.65,30.65,0,0,0,8.66,13.31q10.4,9.5,26.6,9.5a37.82,37.82,0,0,0,17.3-3.8,34.7,34.7,0,0,0,12.1-9.8h1.6v10.4h25.8V83.6A50,50,0,0,0,256.17,64.34ZM227.1,121.9q-6.71,7.3-18.1,7.3-8.2,0-12.6-3.9a12.73,12.73,0,0,1-4.38-9.4c0-.23,0-.46,0-.7q0-15.2,20.4-15.2a49.66,49.66,0,0,1,12.09,1.47,50.53,50.53,0,0,1,9.31,3.33A24.44,24.44,0,0,1,227.1,121.9Zm162-36.58A56.61,56.61,0,0,0,383.4,67.4a47.78,47.78,0,0,0-17.7-19.3,47.21,47.21,0,0,0-25.1-6.9,39.94,39.94,0,0,0-12,1.73,33.09,33.09,0,0,0-6.43,2.77A33.49,33.49,0,0,0,310,56.8h-1.6L310,42.4V3.2H283.8V146.4h24.6V134.2H310a31,31,0,0,0,12.1,11,34.45,34.45,0,0,0,6.53,2.72,41.13,41.13,0,0,0,12,1.68,47.21,47.21,0,0,0,25.1-6.9,47.89,47.89,0,0,0,17.7-19.2q6.41-12.3,6.4-28.1A68.73,68.73,0,0,0,389.08,85.32ZM360,111a27.74,27.74,0,0,1-10.2,10.6,26.52,26.52,0,0,1-13.8,3.8,25.66,25.66,0,0,1-7.37-1.06,26.58,26.58,0,0,1-6.23-2.74A27.74,27.74,0,0,1,312.2,111a31.45,31.45,0,0,1-3.8-15.6,31.51,31.51,0,0,1,3.8-15.6,27.12,27.12,0,0,1,10.2-10.5,27.57,27.57,0,0,1,6.23-2.66,26,26,0,0,1,7.37-1,27.21,27.21,0,0,1,24,14.2,31.51,31.51,0,0,1,3.8,15.6A31.45,31.45,0,0,1,360,111ZM495.84,67.89A34.2,34.2,0,0,0,485.8,52q-12.19-10.8-35.6-10.8a57.3,57.3,0,0,0-24.4,5.2,49.34,49.34,0,0,0-18.6,14.8L424,74.4a32.69,32.69,0,0,1,11.1-8.7A31.07,31.07,0,0,1,449,62.4q10.59,0,16.9,5.2A16.51,16.51,0,0,1,472,78.12a20.57,20.57,0,0,1,.23,3.08v4.4Q461,81,445.2,81a50.43,50.43,0,0,0-20.8,4.2,34.78,34.78,0,0,0-14.8,12,30.84,30.84,0,0,0-5.4,18q0,15.4,10.4,24.9t26.6,9.5a37.82,37.82,0,0,0,17.3-3.8,34.7,34.7,0,0,0,12.1-9.8h1.6v10.4H498V83.6A53,53,0,0,0,495.84,67.89Zm-30.34,54q-6.71,7.3-18.1,7.3-8.2,0-12.6-3.9a12.87,12.87,0,0,1-4.4-10.1q0-15.2,20.4-15.2a49.69,49.69,0,0,1,21.4,4.8A24.49,24.49,0,0,1,465.5,121.9Zm110.8.5a17,17,0,0,1-6.3,1q-6.81,0-9.6-3.2Q557,116.81,557,109V66.8h25V44.4H557V15.6H530.8V44.4H513V66.8h17.8v47q0,16.61,9.4,25.6a27.52,27.52,0,0,0,10.4,6.3,41.16,41.16,0,0,0,14,2.3,49,49,0,0,0,18.2-3.4V119A48.33,48.33,0,0,1,576.3,122.4Z"/></g></g></svg>